# xmcd
#
# Track frame offsets: 
#        150
#        28528
#        65142
#        85383
#        122470
#        160295
#        191586
#        223050
#
# Disc length: 3369 seconds
#
# Revision: 0
# Processed by: cddbd v1.5.1PL0 Copyright (c) Steve Scherf et al.
# Submitted via: ExactAudioCopy v0.95a2
#
DISCID=6f0d2708
DTITLE=Willie King - Jukin' At Bettie's
DYEAR=2004
DGENRE=Blues
TTITLE0=Jukin' At Bettie's
TTITLE1=It Takes A Good Woman
TTITLE2=That's What The Blues Is All About
TTITLE3=Troubles To The Wind
TTITLE4=Don't Blame It On Me
TTITLE5=The Real Deal
TTITLE6=Systematic Train
TTITLE7=Back To The Woods
EXTD=LABEL: Freedom Creek Music\nURL: www.willie-king.com\nNOTE: Recor
EXTD=ded Live at Bettie's Place, Praries Point, Mississippi May 9, 200
EXTD=4
EXTT0=
EXTT1=
EXTT2=
EXTT3=
EXTT4=
EXTT5=
EXTT6=
EXTT7=
PLAYORDER=
